<?xml version="1.0" encoding="UTF-8" standalone="no"?>
<!-- Generator: Adobe Illustrator 18.0.0, SVG Export Plug-In . SVG Version: 6.00 Build 0)  -->

<svg
   xmlns:dc="http://purl.org/dc/elements/1.1/"
   xmlns:cc="http://creativecommons.org/ns#"
   xmlns:rdf="http://www.w3.org/1999/02/22-rdf-syntax-ns#"
   xmlns:svg="http://www.w3.org/2000/svg"
   xmlns="http://www.w3.org/2000/svg"
   xmlns:sodipodi="http://sodipodi.sourceforge.net/DTD/sodipodi-0.dtd"
   xmlns:inkscape="http://www.inkscape.org/namespaces/inkscape"
   version="1.1"
   id="Capa_1"
   x="0px"
   y="0px"
   viewBox="0 0 24 24"
   xml:space="preserve"
   sodipodi:docname="chat-right.svg"
   width="24"
   height="24"
   inkscape:version="0.92.3 (2405546, 2018-03-11)"><metadata
   id="metadata51"><rdf:RDF><cc:Work
       rdf:about=""><dc:format>image/svg+xml</dc:format><dc:type
         rdf:resource="http://purl.org/dc/dcmitype/StillImage" /><dc:title /></cc:Work></rdf:RDF></metadata><defs
   id="defs49">
	
	
	
	
	
</defs><sodipodi:namedview
   pagecolor="#ffffff"
   bordercolor="#666666"
   borderopacity="1"
   objecttolerance="10"
   gridtolerance="10"
   guidetolerance="10"
   inkscape:pageopacity="0"
   inkscape:pageshadow="2"
   inkscape:window-width="1299"
   inkscape:window-height="704"
   id="namedview47"
   showgrid="false"
   inkscape:zoom="21.833333"
   inkscape:cx="12"
   inkscape:cy="12"
   inkscape:window-x="67"
   inkscape:window-y="27"
   inkscape:window-maximized="1"
   inkscape:current-layer="Capa_1"
   showguides="true"
   inkscape:guide-bbox="true"
   inkscape:measure-start="98.3051,29.4915"
   inkscape:measure-end="20.3983,39.5678" />
<g
   id="g6"
   transform="matrix(1.3617021,0,0,1.3613543,0,-54.780046)">
		
	</g>
<g
   id="g16"
   transform="translate(0,-34)">
</g>
<g
   id="g18"
   transform="translate(0,-34)">
</g>
<g
   id="g20"
   transform="translate(0,-34)">
</g>
<g
   id="g22"
   transform="translate(0,-34)">
</g>
<g
   id="g24"
   transform="translate(0,-34)">
</g>
<g
   id="g26"
   transform="translate(0,-34)">
</g>
<g
   id="g28"
   transform="translate(0,-34)">
</g>
<g
   id="g30"
   transform="translate(0,-34)">
</g>
<g
   id="g32"
   transform="translate(0,-34)">
</g>
<g
   id="g34"
   transform="translate(0,-34)">
</g>
<g
   id="g36"
   transform="translate(0,-34)">
</g>
<g
   id="g38"
   transform="translate(0,-34)">
</g>
<g
   id="g40"
   transform="translate(0,-34)">
</g>
<g
   id="g42"
   transform="translate(0,-34)">
</g>
<g
   id="g44"
   transform="translate(0,-34)">
</g>
<path
   style="opacity:1;fill:#b8b8b8;fill-opacity:1;stroke-width:0.04580153"
   d="m 23.70223,23.903747 c -0.966214,-0.496951 -2.954766,-1.622829 -5.450382,-3.085894 l -1.740458,-1.02035 -5.129771,-0.03111 C 5.6460493,19.731598 5.40188,19.719335 4.6487123,19.42823 3.7795053,19.092275 3.0317725,18.568559 2.1273212,17.662235 0.76365631,16.295747 0.17756601,14.967454 0.04412351,12.940955 -0.05529419,11.431168 0.02606431,6.392606 0.16125871,5.6867284 0.39859021,4.4475722 1.034937,3.2453955 1.9634334,2.2820871 2.7203127,1.4968303 3.5333965,0.94545328 4.5054145,0.55829188 5.3687554,0.21441738 5.5408221,0.18591938 7.0655806,0.13427208 8.946925,0.07054638 17.53375,0.10675278 18.02284,0.18047338 c 1.102939,0.1662461 2.20727,0.6210604 3.068703,1.26383282 0.96305,0.7185959 1.712259,1.6218466 2.200349,2.6527544 0.461945,0.9756842 0.548071,1.3918474 0.61699,2.9812991 0.05128,1.1825919 0.06142,16.9246173 0.01091,16.9216403 -0.01889,-0.0011 -0.116794,-0.04443 -0.217557,-0.09625 z"
   id="path34"
   inkscape:connector-curvature="0" /></svg>