<?xml version="1.0" encoding="UTF-8" standalone="no"?>
<!-- Generator: Adobe Illustrator 18.0.0, SVG Export Plug-In . SVG Version: 6.00 Build 0)  -->

<svg
   xmlns:dc="http://purl.org/dc/elements/1.1/"
   xmlns:cc="http://creativecommons.org/ns#"
   xmlns:rdf="http://www.w3.org/1999/02/22-rdf-syntax-ns#"
   xmlns:svg="http://www.w3.org/2000/svg"
   xmlns="http://www.w3.org/2000/svg"
   xmlns:sodipodi="http://sodipodi.sourceforge.net/DTD/sodipodi-0.dtd"
   xmlns:inkscape="http://www.inkscape.org/namespaces/inkscape"
   version="1.1"
   id="Capa_1"
   x="0px"
   y="0px"
   viewBox="0 0 24 24"
   xml:space="preserve"
   sodipodi:docname="chat-left.svg"
   width="24"
   height="24"
   inkscape:version="0.92.3 (2405546, 2018-03-11)"><metadata
   id="metadata51"><rdf:RDF><cc:Work
       rdf:about=""><dc:format>image/svg+xml</dc:format><dc:type
         rdf:resource="http://purl.org/dc/dcmitype/StillImage" /><dc:title></dc:title></cc:Work></rdf:RDF></metadata><defs
   id="defs49">
	
	
	
	
	
</defs><sodipodi:namedview
   pagecolor="#ffffff"
   bordercolor="#666666"
   borderopacity="1"
   objecttolerance="10"
   gridtolerance="10"
   guidetolerance="10"
   inkscape:pageopacity="0"
   inkscape:pageshadow="2"
   inkscape:window-width="1299"
   inkscape:window-height="704"
   id="namedview47"
   showgrid="false"
   inkscape:zoom="16.375"
   inkscape:cx="5.1603053"
   inkscape:cy="16"
   inkscape:window-x="67"
   inkscape:window-y="27"
   inkscape:window-maximized="1"
   inkscape:current-layer="Capa_1"
   showguides="true"
   inkscape:guide-bbox="true"
   inkscape:measure-start="98.3051,29.4915"
   inkscape:measure-end="20.3983,39.5678" />
<g
   id="g6"
   transform="matrix(1.3617021,0,0,1.3613543,0,-54.780046)">
		
	</g>
<g
   id="g16"
   transform="translate(0,-34)">
</g>
<g
   id="g18"
   transform="translate(0,-34)">
</g>
<g
   id="g20"
   transform="translate(0,-34)">
</g>
<g
   id="g22"
   transform="translate(0,-34)">
</g>
<g
   id="g24"
   transform="translate(0,-34)">
</g>
<g
   id="g26"
   transform="translate(0,-34)">
</g>
<g
   id="g28"
   transform="translate(0,-34)">
</g>
<g
   id="g30"
   transform="translate(0,-34)">
</g>
<g
   id="g32"
   transform="translate(0,-34)">
</g>
<g
   id="g34"
   transform="translate(0,-34)">
</g>
<g
   id="g36"
   transform="translate(0,-34)">
</g>
<g
   id="g38"
   transform="translate(0,-34)">
</g>
<g
   id="g40"
   transform="translate(0,-34)">
</g>
<g
   id="g42"
   transform="translate(0,-34)">
</g>
<g
   id="g44"
   transform="translate(0,-34)">
</g>
<path
   style="opacity:1;fill:#4fc1e9;fill-opacity:1;stroke-width:0.09234536"
   d="M 2.9999992e-6,15.188164 C 2.9999992e-6,5.6758291 0.0017172,5.6384035 0.49312413,4.4219625 0.86435333,3.5030122 1.2990594,2.8501368 2.0317344,2.1111574 2.8303291,1.3056912 3.5734624,0.82589219 4.6059555,0.4491283 5.8199569,0.00613116 6.3840181,-0.02512734 12.513622,0.01091489 c 5.540799,0.03257925 5.644785,0.0365655 6.323545,0.24231017 2.43885,0.73926217 4.265605,2.58780794 4.913697,4.97231114 0.176945,0.6510299 0.199418,1.0272647 0.237651,3.9788067 0.02739,2.1142561 0.0055,3.5714421 -0.06238,4.1466501 -0.210148,1.781646 -0.847488,3.107381 -2.077129,4.320653 -0.884424,0.872652 -1.776932,1.509993 -2.963134,1.873354 l -1.131122,0.150027 -4.999901,0.03326 -5.2998602,0.03326 -1.9959026,1.179065 C 3.3939965,22.16056 1.3278583,23.32966 0.48484999,23.755236 L 0,24 Z"
   id="path58"
   inkscape:connector-curvature="0"
   sodipodi:nodetypes="sssssssccscccccscs" /></svg>